<svg xmlns="http://www.w3.org/2000/svg" fill-rule="evenodd" stroke-linejoin="round" stroke-miterlimit="2" clip-rule="evenodd" viewBox="0 0 64 64"><rect width="64" height="64" fill="none"/><path fill="#3fc1c9" d="M430.181,88.068C430.781,88.023 431.388,88 432,88C445.246,88 456,98.754 456,112C456,125.246 445.246,136 432,136C418.754,136 408,125.246 408,112C408,111.388 408.023,110.781 408.068,110.181C408.924,120.71 417.751,129 428.5,129C439.814,129 449,119.814 449,108.5C449,97.751 440.71,88.924 430.181,88.068Z" transform="translate(-400 -80)"/><path fill="#364f6b" d="M256,107.667L276,107.667C276.92,107.667 277.667,106.92 277.667,106C277.667,105.08 276.92,104.333 276,104.333L256,104.333C255.08,104.333 254.333,105.08 254.333,106C254.333,106.92 255.08,107.667 256,107.667Z" transform="matrix(1.2 0 0 1.2 -287.2 -95.2)"/><path fill="#364f6b" d="M256,107.667L276,107.667C276.92,107.667 277.667,106.92 277.667,106C277.667,105.08 276.92,104.333 276,104.333L256,104.333C255.08,104.333 254.333,105.08 254.333,106C254.333,106.92 255.08,107.667 256,107.667Z" transform="rotate(90 223.2 -64) scale(1.2)"/><path fill="#364f6b" d="M666,284.333C655.882,284.333 647.667,276.118 647.667,266C647.667,255.882 655.882,247.667 666,247.667C676.118,247.667 684.333,255.882 684.333,266C684.333,273.976 679.229,280.77 672.111,283.289C671.243,283.596 670.789,284.549 671.095,285.416C671.402,286.283 672.356,286.738 673.223,286.431C681.634,283.454 687.667,275.426 687.667,266C687.667,254.042 677.958,244.333 666,244.333C654.042,244.333 644.333,254.042 644.333,266C644.333,277.958 654.042,287.667 666,287.667C666.92,287.667 667.667,286.92 667.667,286C667.667,285.08 666.92,284.333 666,284.333Z" transform="rotate(-45 68.919 1101.692) scale(1.2)"/></svg>