<svg xmlns="http://www.w3.org/2000/svg" viewBox="0 0 24 24"><circle cx="12" cy="12" r="9.75" fill="#fd6c77"/><path fill="#494249" d="m15.53,8.47c-.293-.293-.768-.293-1.061,0l-2.47,2.47-2.47-2.47c-.293-.293-.768-.293-1.061,0s-.293.768,0,1.061l2.47,2.47-2.47,2.47c-.293.293-.293.768,0,1.061.146.146.338.22.53.22s.384-.073.53-.22l2.47-2.47,2.47,2.47c.146.146.338.22.53.22s.384-.073.53-.22c.293-.293.293-.768,0-1.061l-2.47-2.47,2.47-2.47c.293-.293.293-.768,0-1.061Z"/><path fill="#494249" d="m12,2.25C6.624,2.25,2.25,6.624,2.25,12s4.374,9.75,9.75,9.75,9.75-4.374,9.75-9.75S17.376,2.25,12,2.25Zm0,18c-4.549,0-8.25-3.701-8.25-8.25S7.451,3.75,12,3.75s8.25,3.701,8.25,8.25-3.701,8.25-8.25,8.25Z"/></svg>