<svg xmlns="http://www.w3.org/2000/svg" viewBox="0 0 64 64"><rect width="56" height="6" x="4" y="54" fill="#536882" rx="1" ry="1"/><rect width="8" height="10" x="7" y="44" fill="#78b24c"/><rect width="8" height="16" x="21" y="38" fill="#78b24c"/><rect width="8" height="24" x="35" y="30" fill="#78b24c"/><polygon fill="#78b24c" points="60 20 57 20 57 54 49 54 49 20 46 20 53 9.88 60 20"/><path fill="#d3dce5" d="m38,18s-7.61,8-17,8S4,18,4,18c0,0,7.61-8,17-8s17,8,17,8Z"/><circle cx="21" cy="18" r="8" fill="#b8c3d5"/><path fill="#536882" d="m25,18c0,2.21-1.79,4-4,4s-4-1.79-4-4,1.79-4,4-4c.06,0,.12,0,.18.01-.12.31-.18.64-.18.99,0,1.66,1.34,3,3,3,.35,0,.68-.06.99-.18.01.06.01.12.01.18Z"/><path fill="#1a2c3d" d="m59,53h-1V21h2c.37,0,.71-.21.89-.54.17-.33.15-.73-.06-1.03l-7-10.12c-.37-.54-1.27-.54-1.64,0l-7,10.12c-.21.31-.24.7-.06,1.03.17.33.51.54.89.54h2v32h-4v-23c0-.55-.45-1-1-1h-8c-.55,0-1,.45-1,1v23h-4v-15c0-.55-.45-1-1-1h-8c-.55,0-1,.45-1,1v15h-4v-9c0-.55-.45-1-1-1H7c-.55,0-1,.45-1,1v9h-1c-1.1,0-2,.9-2,2v4c0,1.1.9,2,2,2h54c1.1,0,2-.9,2-2v-4c0-1.1-.9-2-2-2Zm-10-34h-1.09l5.09-7.36,5.09,7.36h-1.09c-.55,0-1,.45-1,1v33h-6V20c0-.55-.45-1-1-1Zm-13,12h6v22h-6v-22Zm-14,8h6v14h-6v-14Zm-14,6h6v8h-6v-8Zm-3,14v-4h54v4s-54,0-54,0ZM21,27c9.71,0,17.4-7.97,17.72-8.31.37-.39.37-.99,0-1.38-.32-.34-8.02-8.31-17.72-8.31S3.6,16.97,3.28,17.31c-.37.39-.37.99,0,1.38.32.34,8.02,8.31,17.72,8.31Zm-7-9c0-3.86,3.14-7,7-7s7,3.14,7,7-3.14,7-7,7-7-3.14-7-7Zm14.14,5.45c1.16-1.52,1.86-3.4,1.86-5.45s-.7-3.94-1.86-5.45c3.98,1.66,7.08,4.23,8.41,5.45-1.34,1.22-4.43,3.79-8.41,5.45Zm-14.28-10.91c-1.16,1.52-1.86,3.4-1.86,5.45s.7,3.94,1.86,5.45c-3.98-1.66-7.08-4.23-8.41-5.45,1.34-1.22,4.43-3.79,8.41-5.45Zm12.12,5.11c-.05-.3-.23-.56-.49-.71-.26-.15-.58-.17-.86-.06-.2.08-.4.11-.63.11-1.1,0-2-.9-2-2,0-.23.04-.43.11-.63.11-.28.08-.6-.06-.86s-.41-.44-.71-.49c-.11-.02-.23-.02-.34-.02-2.76,0-5,2.24-5,5s2.24,5,5,5,5-2.24,5-5c0-.11,0-.23-.02-.34Zm-4.98,3.34c-1.65,0-3-1.35-3-3,0-1.3.83-2.41,2-2.83.09,2.07,1.76,3.74,3.83,3.82-.41,1.17-1.52,2-2.83,2Zm-1-15v-2c0-.55.45-1,1-1s1,.45,1,1v2c0,.55-.45,1-1,1s-1-.45-1-1Zm4.88.6l.8-1.83c.22-.51.81-.74,1.32-.52.51.22.74.81.52,1.32l-.8,1.83c-.16.38-.53.6-.92.6-.13,0-.27-.03-.4-.08-.51-.22-.74-.81-.52-1.32Zm-10.39-1.03c-.22-.51.01-1.1.52-1.32.51-.22,1.1.01,1.32.52l.8,1.83c.22.51-.01,1.1-.52,1.32-.13.06-.27.08-.4.08-.39,0-.75-.22-.92-.6l-.8-1.83Zm6.51,23.43c.55,0,1,.45,1,1v2c0,.55-.45,1-1,1s-1-.45-1-1v-2c0-.55.45-1,1-1Zm5.71-.4l.8,1.83c.22.51-.01,1.1-.52,1.32-.13.06-.27.08-.4.08-.39,0-.75-.22-.92-.6l-.8-1.83c-.22-.51.01-1.1.52-1.32.51-.22,1.1.01,1.32.52Zm-10.11-.52c.51.22.74.81.52,1.32l-.8,1.83c-.16.38-.53.6-.92.6-.13,0-.27-.03-.4-.08-.51-.22-.74-.81-.52-1.32l.8-1.83c.22-.51.81-.74,1.32-.52Z"/></svg>